<?xml version="1.0" encoding="UTF-8" standalone="no"?>
<!-- Created with Inkscape (http://www.inkscape.org/) -->

<svg
   xmlns:dc="http://purl.org/dc/elements/1.1/"
   xmlns:cc="http://creativecommons.org/ns#"
   xmlns:rdf="http://www.w3.org/1999/02/22-rdf-syntax-ns#"
   xmlns:svg="http://www.w3.org/2000/svg"
   xmlns="http://www.w3.org/2000/svg"
   xmlns:sodipodi="http://sodipodi.sourceforge.net/DTD/sodipodi-0.dtd"
   xmlns:inkscape="http://www.inkscape.org/namespaces/inkscape"
   width="1028"
   height="720"
   id="svg2"
   version="1.1"
   inkscape:version="0.48.3.1 r9886"
   sodipodi:docname="intro.svg"
   inkscape:export-filename="/home/pjones/develop/presentations/hsintro/banners/intro.png"
   inkscape:export-xdpi="70.040001"
   inkscape:export-ydpi="70.040001">
  <defs
     id="defs4">
    <filter
       inkscape:collect="always"
       id="filter4598">
      <feGaussianBlur
         inkscape:collect="always"
         stdDeviation="6.6203728e-08"
         id="feGaussianBlur4600" />
    </filter>
  </defs>
  <sodipodi:namedview
     id="base"
     pagecolor="#000000"
     bordercolor="#666666"
     borderopacity="1.0"
     inkscape:pageopacity="1"
     inkscape:pageshadow="2"
     inkscape:zoom="0.98994949"
     inkscape:cx="446.20694"
     inkscape:cy="286.33049"
     inkscape:document-units="px"
     inkscape:current-layer="layer1"
     showgrid="false"
     inkscape:window-width="1920"
     inkscape:window-height="1062"
     inkscape:window-x="1920"
     inkscape:window-y="0"
     inkscape:window-maximized="0"
     inkscape:snap-grids="true"
     showguides="false"
     inkscape:guide-bbox="true">
    <inkscape:grid
       type="xygrid"
       id="grid3037"
       empspacing="5"
       visible="true"
       enabled="true"
       snapvisiblegridlinesonly="true" />
    <sodipodi:guide
       orientation="0,1"
       position="604.28571,366.42857"
       id="guide4643" />
    <sodipodi:guide
       orientation="0,1"
       position="615.71429,262.14286"
       id="guide4645" />
  </sodipodi:namedview>
  <metadata
     id="metadata7">
    <rdf:RDF>
      <cc:Work
         rdf:about="">
        <dc:format>image/svg+xml</dc:format>
        <dc:type
           rdf:resource="http://purl.org/dc/dcmitype/StillImage" />
        <dc:title></dc:title>
      </cc:Work>
    </rdf:RDF>
  </metadata>
  <g
     inkscape:label="Layer 1"
     inkscape:groupmode="layer"
     id="layer1"
     transform="translate(0,-332.36218)">
    <text
       xml:space="preserve"
       style="font-size:40px;font-style:normal;font-variant:normal;font-weight:normal;font-stretch:normal;line-height:125%;letter-spacing:0px;word-spacing:0px;fill:#ccdde7;fill-opacity:1;stroke:none;font-family:Adobe Jenson Pro;-inkscape-font-specification:Adobe Jenson Pro"
       x="396.47311"
       y="476.36728"
       id="text2985"
       sodipodi:linespacing="125%"><tspan
         sodipodi:role="line"
         id="tspan2987"
         x="396.47311"
         y="476.36728">Introduction to</tspan></text>
    <text
       xml:space="preserve"
       style="font-size:55.76889038000000198px;font-style:normal;font-variant:normal;font-weight:normal;font-stretch:normal;line-height:125%;letter-spacing:0px;word-spacing:0px;fill:#ce4f3a;fill-opacity:1;stroke:none;font-family:Adobe Jenson Pro;-inkscape-font-specification:Adobe Jenson Pro"
       x="214.25494"
       y="671.62714"
       id="text2989"
       sodipodi:linespacing="125%"><tspan
         sodipodi:role="line"
         id="tspan2991"
         x="214.25494"
         y="671.62714"
         style="font-size:200.76800537000002578px;fill:#ce4f3a;fill-opacity:1">Haskell</tspan></text>
    <text
       xml:space="preserve"
       style="font-size:40px;font-style:normal;font-variant:normal;font-weight:normal;font-stretch:normal;text-align:center;line-height:125%;letter-spacing:0px;word-spacing:0px;text-anchor:middle;fill:#ccdde7;fill-opacity:1;stroke:none;font-family:Adobe Jenson Pro;-inkscape-font-specification:Adobe Jenson Pro"
       x="515.27716"
       y="883.50507"
       id="text2993"
       sodipodi:linespacing="125%"><tspan
         sodipodi:role="line"
         id="tspan2995"
         x="515.27716"
         y="883.50507">Peter Jones &lt;pjones@devalot.com&gt;</tspan><tspan
         sodipodi:role="line"
         x="515.27716"
         y="933.50507"
         id="tspan2997">Founder, Devalot.com</tspan></text>
    <g
       transform="matrix(0.52469622,0,0,-0.52469622,464.95924,816.59812)"
       id="g4038">
      <path
         d="m 325.395,3.32695 66.734,100.10205 -66.734,100.101 50.05,0 L 442.18,103.429 375.445,3.32695"
         style="fill:#5b6367;fill-opacity:1;fill-rule:nonzero;stroke:none"
         id="path3789"
         inkscape:connector-curvature="0" />
      <path
         d="m 392.129,3.32695 66.738,100.10205 -66.738,100.101 50.051,0 133.468,-200.20305 -50.05,0 L 483.891,65.8898 442.18,3.32695"
         style="fill:#1e548d;fill-opacity:1;fill-rule:nonzero;stroke:none"
         id="path3791"
         inkscape:connector-curvature="0" />
      <path
         d="m 553.406,61.718 -22.246,33.3672 77.86,0.0039 0,-33.3711"
         style="fill:#5b6367;fill-opacity:1;fill-rule:nonzero;stroke:none"
         id="path3793"
         inkscape:connector-curvature="0" />
      <path
         d="m 520.039,111.768 -22.246,33.368 111.227,0.004 0,-33.372"
         style="fill:#5b6367;fill-opacity:1;fill-rule:nonzero;stroke:none"
         id="path3795"
         inkscape:connector-curvature="0" />
    </g>
    <g
       id="g5173">
      <path
         transform="matrix(0.59226993,0,0,0.59226993,359.82452,423.4757)"
         inkscape:connector-curvature="0"
         id="path4584"
         d="m -176.42857,512.36218 5.71428,57.14286 18.92857,40 20,18.92857 25.71429,12.5 0,-151.78571 -39.28571,17.5 z"
         style="fill:#ffffff;fill-opacity:1;stroke:none;filter:url(#filter4598)" />
      <path
         d="m 296.40076,713.21155 0,90.6289 c 0,0 24.55634,-11.20678 31.40844,-25.87362 6.84379,-14.6813 11.15534,-35.91043 9.80566,-50.84083 -26.51378,-3.07516 -41.2141,-13.91445 -41.2141,-13.91445"
         style="fill:#cde2ea;fill-opacity:1;fill-rule:nonzero;stroke:none"
         id="path3815"
         inkscape:connector-curvature="0" />
      <path
         d="m 337.66628,725.25427 c -19.73292,0 -39.90431,-13.19474 -40.10305,-13.33081 l -1.16247,-0.7639 -1.15201,0.7639 c -0.19768,0.13607 -20.34791,13.33081 -40.10186,13.33081 l -2.09465,0 0,2.09137 c 0,58.25701 23.55185,69.13942 42.48123,77.87693 l 0.86729,0.40702 0.87881,-0.40702 c 18.92617,-8.73751 42.47807,-19.61992 42.47807,-77.87693 l 0,-2.09137 -2.09136,0 z m -67.74691,57.00028 26.48139,-20.00291 26.48244,20.00291 c -0.33481,0.46043 -0.68007,0.91042 -1.0264,1.3612 l -24.94445,-18.8434 -0.51159,-0.38838 -0.51373,0.38838 -24.94231,18.83188 c -0.34525,-0.43926 -0.68009,-0.88925 -1.02535,-1.34968 z m 59.48004,-11.89515 -32.99865,-24.92355 -32.9987,24.92355 c -0.21972,-0.53248 -0.43104,-1.07674 -0.64032,-1.64164 l 33.63902,-25.4164 33.64738,25.4164 c -0.20919,0.5649 -0.42882,1.10916 -0.64873,1.64164 z m -32.99865,31.37897 c -8.3274,-3.85219 -17.4929,-8.28749 -24.92355,-17.46452 l 24.92355,-18.82143 24.93186,18.82143 c -7.43788,9.17703 -16.59293,13.61233 -24.93186,17.46452 z m 33.96344,-33.84826 -33.96344,-25.65478 -33.95187,25.65478 c -3.4956,-9.64763 -5.70326,-22.23436 -5.86858,-38.98559 18.00447,-0.75213 35.20542,-10.61966 39.82045,-13.46447 4.6153,2.84481 21.81384,12.71234 39.82155,13.46447 -0.16633,16.75123 -2.37608,29.33796 -5.85811,38.98559"
         style="fill:#1e548d;fill-opacity:1;fill-rule:nonzero;stroke:none"
         id="path3817"
         inkscape:connector-curvature="0" />
      <path
         d="m 309.85505,806.39337 c -3.24364,1.26705 -8.20205,7.76237 -6.60219,10.53712 1.33094,2.90865 9.48987,2.64605 12.40888,0.7418 -1.31728,-1.2775 -4.91743,-2.61674 -7.93072,-3.0562 1.40299,-2.69731 2.39697,-6.40114 2.12403,-8.22272"
         style="fill:#211d1d;fill-opacity:1;fill-rule:nonzero;stroke:none"
         id="path3819"
         inkscape:connector-curvature="0" />
      <path
         d="m 317.93336,808.91387 c 0.8464,-2.91703 1.11934,-6.74748 0.50114,-8.48527 -2.88767,1.84253 -6.41282,8.91634 -4.55128,11.45774 1.66361,2.81557 9.86727,0.97304 12.4204,-1.49721 -1.5487,-0.99292 -5.335,-1.61965 -8.37026,-1.47526"
         style="fill:#211d1d;fill-opacity:1;fill-rule:nonzero;stroke:none"
         id="path3821"
         inkscape:connector-curvature="0" />
      <path
         d="m 326.67084,801.66311 c 0.15482,-2.64608 -0.35677,-5.94088 -1.20532,-7.30208 -2.13234,2.15644 -3.77719,9.02943 -1.54843,10.69309 2.07368,1.86133 8.48517,-1.20323 10.13833,-3.74457 -1.49513,-0.55472 -4.83279,-0.35678 -7.38458,0.35356"
         style="fill:#211d1d;fill-opacity:1;fill-rule:nonzero;stroke:none"
         id="path3823"
         inkscape:connector-curvature="0" />
      <path
         d="m 333.90998,793.26365 c -0.12562,-2.64928 -0.98247,-5.88221 -1.97645,-7.13575 -1.89584,2.37287 -2.7934,9.39345 -0.39856,10.7967 2.25983,1.6312 8.30838,-2.10207 9.67709,-4.80252 -1.54843,-0.39856 -4.84216,0.15589 -7.30208,1.14157"
         style="fill:#211d1d;fill-opacity:1;fill-rule:nonzero;stroke:none"
         id="path3825"
         inkscape:connector-curvature="0" />
      <path
         d="m 337.47772,778.82395 c -1.22407,2.18564 -1.03577,8.0459 1.1196,8.87328 2.06029,1.02345 6.49854,-2.8258 7.26218,-5.22305 -1.31809,-0.10446 -3.94541,0.7848 -5.81821,1.91485 -0.44998,-2.14493 -1.58003,-4.66538 -2.56357,-5.56508"
         style="fill:#211d1d;fill-opacity:1;fill-rule:nonzero;stroke:none"
         id="path3827"
         inkscape:connector-curvature="0" />
      <path
         d="m 340.89921,771.21625 c -0.72105,2.02038 0.27294,6.93808 2.20654,7.32619 1.88538,0.57319 5.0859,-3.29695 5.38937,-5.43223 -1.13085,0.094 -3.21203,1.22406 -4.64449,2.43768 -0.68113,-1.7461 -1.99841,-3.71211 -2.95142,-4.33164"
         style="fill:#211d1d;fill-opacity:1;fill-rule:nonzero;stroke:none"
         id="path3829"
         inkscape:connector-curvature="0" />
      <path
         d="m 345.75504,768.79008 c 1.45414,0.28124 3.51443,-2.88794 3.56774,-4.50012 -0.83917,0.16848 -2.29332,1.17291 -3.2549,2.20761 -0.6581,-1.24309 -1.81012,-2.60429 -2.57402,-2.98196 -0.36722,1.55915 0.79524,5.12689 2.26118,5.27447"
         style="fill:#211d1d;fill-opacity:1;fill-rule:nonzero;stroke:none"
         id="path3831"
         inkscape:connector-curvature="0" />
      <path
         d="m 296.40076,813.36267 c -1.50772,0 -2.73178,1.22415 -2.73178,2.7402 0,1.51607 1.22406,2.74022 2.73178,2.74022 1.51602,0 2.74036,-1.22415 2.74036,-2.74022 0,-1.51605 -1.22434,-2.7402 -2.74036,-2.7402"
         style="fill:#211d1d;fill-opacity:1;fill-rule:nonzero;stroke:none"
         id="path3833"
         inkscape:connector-curvature="0" />
      <path
         d="m 282.95504,806.39337 c -0.27106,1.82158 0.72293,5.52541 2.12404,8.22272 -3.01329,0.43946 -6.6105,1.7787 -7.93099,3.0562 2.91928,1.90425 11.08115,2.16685 12.40888,-0.7418 1.59155,-2.77475 -3.369,-9.27007 -6.60193,-10.53712"
         style="fill:#211d1d;fill-opacity:1;fill-rule:nonzero;stroke:none"
         id="path3835"
         inkscape:connector-curvature="0" />
      <path
         d="m 278.92687,811.88634 c 1.86449,-2.5414 -1.67405,-9.61521 -4.55128,-11.45774 -0.61525,1.73779 -0.34525,5.56824 0.5041,8.48527 -3.04571,-0.14439 -6.83316,0.48234 -8.37016,1.47526 2.54143,2.47025 10.75373,4.31278 12.41734,1.49721"
         style="fill:#211d1d;fill-opacity:1;fill-rule:nonzero;stroke:none"
         id="path3837"
         inkscape:connector-curvature="0" />
      <path
         d="m 268.89295,805.05412 c 2.22855,-1.66366 0.57547,-8.53665 -1.54848,-10.69309 -0.85691,1.3612 -1.36855,4.656 -1.20219,7.30208 -2.55291,-0.71034 -5.89057,-0.90828 -7.39826,-0.35356 1.6636,2.54134 8.07835,5.6059 10.14893,3.74457"
         style="fill:#211d1d;fill-opacity:1;fill-rule:nonzero;stroke:none"
         id="path3839"
         inkscape:connector-curvature="0" />
      <path
         d="m 261.27813,796.9246 c 2.39494,-1.40325 1.48361,-8.42383 -0.39864,-10.7967 -0.99398,1.25354 -1.85088,4.48647 -1.97747,7.13575 -2.45877,-0.98568 -5.7556,-1.54013 -7.31456,-1.14157 1.38212,2.70045 7.42966,6.43372 9.69067,4.80252"
         style="fill:#211d1d;fill-opacity:1;fill-rule:nonzero;stroke:none"
         id="path3841"
         inkscape:connector-curvature="0" />
      <path
         d="m 254.21468,787.69723 c 2.14592,-0.82738 2.34367,-6.68764 1.11952,-8.87328 -0.98247,0.8997 -2.11351,3.42015 -2.56342,5.56508 -1.88224,-1.13005 -4.49899,-2.01931 -5.81731,-1.91485 0.76377,2.39725 5.19896,6.2465 7.26121,5.22305"
         style="fill:#211d1d;fill-opacity:1;fill-rule:nonzero;stroke:none"
         id="path3843"
         inkscape:connector-curvature="0" />
      <path
         d="m 249.70413,778.54244 c 1.93668,-0.38811 2.93064,-5.30581 2.20976,-7.32619 -0.96361,0.61953 -2.27147,2.58554 -2.96203,4.33164 -1.42295,-1.21362 -3.50609,-2.34367 -4.63398,-2.43768 0.30237,2.13528 3.50401,6.00542 5.38625,5.43223"
         style="fill:#211d1d;fill-opacity:1;fill-rule:nonzero;stroke:none"
         id="path3845"
         inkscape:connector-curvature="0" />
      <path
         d="m 247.05809,768.79008 c 1.46481,-0.14758 2.62512,-3.71532 2.24952,-5.27447 -0.76275,0.37767 -1.90424,1.73887 -2.56341,2.98196 -0.96362,-1.0347 -2.41795,-2.03913 -3.25393,-2.20761 0.0534,1.61218 2.11349,4.78136 3.56782,4.50012"
         style="fill:#211d1d;fill-opacity:1;fill-rule:nonzero;stroke:none"
         id="path3847"
         inkscape:connector-curvature="0" />
      <path
         d="m 309.85505,806.39337 c -3.24364,1.26705 -8.20205,7.76237 -6.60219,10.53712 1.33094,2.90865 9.48987,2.64605 12.40888,0.7418 -1.31728,-1.2775 -4.91743,-2.61674 -7.93072,-3.0562 1.40299,-2.69731 2.39697,-6.40114 2.12403,-8.22272"
         style="fill:#ffffff;fill-opacity:1;fill-rule:nonzero;stroke:none"
         id="path3849"
         inkscape:connector-curvature="0" />
      <path
         d="m 317.93336,808.91387 c 0.8464,-2.91703 1.11934,-6.74748 0.50114,-8.48527 -2.88767,1.84253 -6.41282,8.91634 -4.55128,11.45774 1.66361,2.81557 9.86727,0.97304 12.4204,-1.49721 -1.5487,-0.99292 -5.335,-1.61965 -8.37026,-1.47526"
         style="fill:#ffffff;fill-opacity:1;fill-rule:nonzero;stroke:none"
         id="path3851"
         inkscape:connector-curvature="0" />
      <path
         d="m 326.67084,801.66311 c 0.15482,-2.64608 -0.35677,-5.94088 -1.20532,-7.30208 -2.13234,2.15644 -3.77719,9.02943 -1.54843,10.69309 2.07368,1.86133 8.48517,-1.20323 10.13833,-3.74457 -1.49513,-0.55472 -4.83279,-0.35678 -7.38458,0.35356"
         style="fill:#ffffff;fill-opacity:1;fill-rule:nonzero;stroke:none"
         id="path3853"
         inkscape:connector-curvature="0" />
      <path
         d="m 333.90998,793.26365 c -0.12562,-2.64928 -0.98247,-5.88221 -1.97645,-7.13575 -1.89584,2.37287 -2.7934,9.39345 -0.39856,10.7967 2.25983,1.6312 8.30838,-2.10207 9.67709,-4.80252 -1.54843,-0.39856 -4.84216,0.15589 -7.30208,1.14157"
         style="fill:#ffffff;fill-opacity:1;fill-rule:nonzero;stroke:none"
         id="path3855"
         inkscape:connector-curvature="0" />
      <path
         d="m 337.47772,778.82395 c -1.22407,2.18564 -1.03577,8.0459 1.1196,8.87328 2.06029,1.02345 6.49854,-2.8258 7.26218,-5.22305 -1.31809,-0.10446 -3.94541,0.7848 -5.81821,1.91485 -0.44998,-2.14493 -1.58003,-4.66538 -2.56357,-5.56508"
         style="fill:#ffffff;fill-opacity:1;fill-rule:nonzero;stroke:none"
         id="path3857"
         inkscape:connector-curvature="0" />
      <path
         d="m 340.89921,771.21625 c -0.72105,2.02038 0.27294,6.93808 2.20654,7.32619 1.88538,0.57319 5.0859,-3.29695 5.38937,-5.43223 -1.13085,0.094 -3.21203,1.22406 -4.64449,2.43768 -0.68113,-1.7461 -1.99841,-3.71211 -2.95142,-4.33164"
         style="fill:#ffffff;fill-opacity:1;fill-rule:nonzero;stroke:none"
         id="path3859"
         inkscape:connector-curvature="0" />
      <path
         d="m 345.75504,768.79008 c 1.45414,0.28124 3.51443,-2.88794 3.56774,-4.50012 -0.83917,0.16848 -2.29332,1.17291 -3.2549,2.20761 -0.6581,-1.24309 -1.81012,-2.60429 -2.57402,-2.98196 -0.36722,1.55915 0.79524,5.12689 2.26118,5.27447"
         style="fill:#ffffff;fill-opacity:1;fill-rule:nonzero;stroke:none"
         id="path3861"
         inkscape:connector-curvature="0" />
      <path
         d="m 296.40076,813.36267 c -1.50772,0 -2.73178,1.22415 -2.73178,2.7402 0,1.51607 1.22406,2.74022 2.73178,2.74022 1.51602,0 2.74036,-1.22415 2.74036,-2.74022 0,-1.51605 -1.22434,-2.7402 -2.74036,-2.7402"
         style="fill:#ffffff;fill-opacity:1;fill-rule:nonzero;stroke:none"
         id="path3863"
         inkscape:connector-curvature="0" />
      <path
         d="m 282.95504,806.39337 c -0.27106,1.82158 0.72293,5.52541 2.12404,8.22272 -3.01329,0.43946 -6.6105,1.7787 -7.93099,3.0562 2.91928,1.90425 11.08115,2.16685 12.40888,-0.7418 1.59155,-2.77475 -3.369,-9.27007 -6.60193,-10.53712"
         style="fill:#ffffff;fill-opacity:1;fill-rule:nonzero;stroke:none"
         id="path3865"
         inkscape:connector-curvature="0" />
      <path
         d="m 278.92687,811.88634 c 1.86449,-2.5414 -1.67405,-9.61521 -4.55128,-11.45774 -0.61525,1.73779 -0.34525,5.56824 0.5041,8.48527 -3.04571,-0.14439 -6.83316,0.48234 -8.37016,1.47526 2.54143,2.47025 10.75373,4.31278 12.41734,1.49721"
         style="fill:#ffffff;fill-opacity:1;fill-rule:nonzero;stroke:none"
         id="path3867"
         inkscape:connector-curvature="0" />
      <path
         d="m 268.89295,805.05412 c 2.22855,-1.66366 0.57547,-8.53665 -1.54848,-10.69309 -0.85691,1.3612 -1.36855,4.656 -1.20219,7.30208 -2.55291,-0.71034 -5.89057,-0.90828 -7.39826,-0.35356 1.6636,2.54134 8.07835,5.6059 10.14893,3.74457"
         style="fill:#ffffff;fill-opacity:1;fill-rule:nonzero;stroke:none"
         id="path3869"
         inkscape:connector-curvature="0" />
      <path
         d="m 261.27813,796.9246 c 2.39494,-1.40325 1.48361,-8.42383 -0.39864,-10.7967 -0.99398,1.25354 -1.85088,4.48647 -1.97747,7.13575 -2.45877,-0.98568 -5.7556,-1.54013 -7.31456,-1.14157 1.38212,2.70045 7.42966,6.43372 9.69067,4.80252"
         style="fill:#ffffff;fill-opacity:1;fill-rule:nonzero;stroke:none"
         id="path3871"
         inkscape:connector-curvature="0" />
      <path
         d="m 254.21468,787.69723 c 2.14592,-0.82738 2.34367,-6.68764 1.11952,-8.87328 -0.98247,0.8997 -2.11351,3.42015 -2.56342,5.56508 -1.88224,-1.13005 -4.49899,-2.01931 -5.81731,-1.91485 0.76377,2.39725 5.19896,6.2465 7.26121,5.22305"
         style="fill:#ffffff;fill-opacity:1;fill-rule:nonzero;stroke:none"
         id="path3873"
         inkscape:connector-curvature="0" />
      <path
         d="m 249.70413,778.54244 c 1.93668,-0.38811 2.93064,-5.30581 2.20976,-7.32619 -0.96361,0.61953 -2.27147,2.58554 -2.96203,4.33164 -1.42295,-1.21362 -3.50609,-2.34367 -4.63398,-2.43768 0.30237,2.13528 3.50401,6.00542 5.38625,5.43223"
         style="fill:#ffffff;fill-opacity:1;fill-rule:nonzero;stroke:none"
         id="path3875"
         inkscape:connector-curvature="0" />
      <path
         d="m 247.05809,768.79008 c 1.46481,-0.14758 2.62512,-3.71532 2.24952,-5.27447 -0.76275,0.37767 -1.90424,1.73887 -2.56341,2.98196 -0.96362,-1.0347 -2.41795,-2.03913 -3.25393,-2.20761 0.0534,1.61218 2.11349,4.78136 3.56782,4.50012"
         style="fill:#ffffff;fill-opacity:1;fill-rule:nonzero;stroke:none"
         id="path3877"
         inkscape:connector-curvature="0" />
      <path
         d="m 286.48314,731.46809 -0.65917,0 -0.0104,0.24053 c -0.20946,0.61953 -0.66962,1.22433 -2.50171,1.22433 -0.37552,0 -0.92193,-0.0723 -1.52754,-0.20838 -0.6581,-0.15803 -1.43245,-0.31392 -2.09163,-0.31392 -1.54843,0 -3.11775,0.3024 -4.15486,2.3951 -0.48105,-0.87908 -1.66253,-2.3951 -4.07103,-2.3951 -0.65917,0 -1.33918,0.13714 -1.73571,0.2199 l -0.11509,0.0209 -0.0722,0.022 -0.0104,0.008 c -0.022,0 -0.0324,0 -0.0534,0.0104 -0.0617,0.0104 -0.11507,0.0209 -0.15589,0.0324 l -0.0325,0.0104 c -0.29399,0.0619 -0.96361,0.19794 -1.49722,0.19794 -1.93354,0 -2.30079,-0.63721 -2.46924,-1.23478 l 0,-0.23008 -0.91864,0 -0.0104,0.25205 0.0104,11.50917 0,0.0429 c 0.55456,3.1065 2.45877,3.46328 3.82731,3.46328 0.20927,0 0.39969,-0.0104 0.57649,-0.0104 0.14649,-0.0115 0.28354,-0.0115 0.40703,-0.0115 0.79515,0 1.50777,-0.16848 1.85302,-0.25124 0.32437,-0.072 1.20318,-0.28151 1.71691,-0.28151 0.0407,0 0.10473,-0.0104 0.19875,-0.0209 0.12562,-0.0324 0.31284,-0.0648 0.51159,-0.0648 0.84854,0 1.37057,0.60801 1.58003,1.83208 l 0.0324,0.21963 0.91845,0 0.0327,-0.21963 c 0.27293,-1.56932 1.01488,-1.77878 1.63307,-1.77878 0.13392,0 0.26062,0.0115 0.36427,0.022 0.10446,0.0104 0.19044,0.0104 0.27294,0.0104 0.42909,0 1.19273,0.15508 1.70646,0.2815 0.23866,0.0619 1.06631,0.25124 1.84038,0.25124 0.12562,0 0.26276,0 0.41758,0.0115 0.18,0 0.37767,0.0104 0.57641,0.0104 1.39255,0 3.30739,-0.35678 3.86184,-3.46328 l 0,-11.80408 -0.25097,0 z m -16.94985,12.7228 c -0.022,0 -0.0325,0.0104 -0.0429,0.0104 -0.0722,0.0104 -0.12553,0.022 -0.16635,0.0429 l -0.0429,0.0104 c -0.28355,0.0512 -0.96155,0.1883 -1.48677,0.1883 -1.41143,0 -1.92516,-0.34633 -2.16371,-0.62677 l 0,-9.4687 c 0.80355,0.76363 1.80798,0.86729 2.63558,0.86729 0.18728,0 0.37772,0 0.55452,-0.0104 0.13601,0 0.27307,-0.0104 0.39655,-0.0104 0.79516,0 1.50778,-0.16848 1.85303,-0.2416 0.32437,-0.0828 1.20318,-0.28044 1.71691,-0.28044 0.0407,0 0.10473,-0.0115 0.19874,-0.0324 0.12562,-0.022 0.31285,-0.0535 0.51159,-0.0535 0.84854,0 1.37058,0.59756 1.58004,1.83208 l 0,9.19791 c -0.63721,-0.8172 -1.76834,-1.69601 -3.61086,-1.69601 -0.66962,0 -1.3685,0.14543 -1.75666,0.23115 l -0.0942,0.0104 -0.0722,0.019 -0.0104,0.0104 z m 15.99551,-9.86539 0,9.42585 c -0.39642,0.47194 -1.11934,0.69158 -2.21698,0.69158 -0.37553,0 -0.92194,-0.0731 -1.52754,-0.20919 -0.70096,-0.15803 -1.44397,-0.31391 -2.09163,-0.31391 -1.29933,0 -2.62706,0.20919 -3.63149,1.54843 l 0,-9.05033 c 0.27294,-1.58084 1.01488,-1.77852 1.63308,-1.77852 0.13392,0 0.24909,0.0104 0.36427,0.0209 0.10446,0 0.19044,0.0115 0.27294,0.0115 0.42909,0 1.16031,0.14437 1.70646,0.28044 0.3024,0.0731 1.09871,0.2416 1.84038,0.2416 0.12562,0 0.26276,0.0104 0.40713,0.0104 0.17999,0.0104 0.36722,0.0104 0.56489,0.0104 0.84962,0 1.8645,-0.11518 2.67849,-0.88926"
         style="fill:#1b1919;fill-opacity:1;fill-rule:nonzero;stroke:none"
         id="path3879"
         inkscape:connector-curvature="0" />
      <path
         d="m 305.98464,780.15167 c -1.31834,-0.0211 -1.04728,-1.43245 -1.04728,-1.43245 -0.69882,-1.19166 -1.97646,-2.30082 -1.97646,-2.30082 -1.49512,-1.00443 -4.4361,-0.35677 -4.4361,-0.35677 -1.65209,0.35677 -1.23478,0.65917 -1.23478,0.65917 0,0 3.35855,0.12562 3.64006,0.95113 0.2732,0.78453 -0.48963,1.57977 -0.48963,1.57977 l 1.81012,1.71691 c 0.32437,-0.31285 0.87881,-0.50329 0.87881,-0.50329 1.43353,0.0107 1.07675,1.13005 1.07675,1.13005 l 0.99399,1.09872 c 0.94256,-0.57561 1.60173,-1.52647 1.60173,-1.52647 l -0.81721,-1.01595"
         style="fill:#1b1919;fill-opacity:1;fill-rule:nonzero;stroke:none"
         id="path3881"
         inkscape:connector-curvature="0" />
      <path
         d="m 292.15295,792.37413 c -0.62676,0.75238 -1.32879,1.63119 -1.38209,1.81842 0,0 -1.77878,-0.094 -2.55313,-2.16368 0,0 0.99398,-0.77408 1.8436,-1.60173 0,0 4.65493,-5.18019 5.04305,-5.515 0,0 4.57243,-4.34209 5.00126,-5.15608 l 1.65209,1.57977 c 0,0 -3.09606,2.98088 -4.84538,5.41884 l -4.7594,5.61946"
         style="fill:#1b1919;fill-opacity:1;fill-rule:nonzero;stroke:none"
         id="path3883"
         inkscape:connector-curvature="0" />
      <path
         d="m 286.56564,776.30323 c -0.18723,0.20838 -0.34526,0.40712 -0.3024,0.75238 l 8.05661,6.98817 1.05559,-1.07676 -8.15063,-7.06343 c -0.32436,0.0115 -0.48239,0.19875 -0.65917,0.39964 z m 7.66823,4.09004 -5.27099,-4.51057 c -0.39883,-0.27106 -0.89997,-0.34525 -1.37191,-0.23865 l 7.13574,6.21408 c 0.0619,-0.54319 -0.10473,-1.07889 -0.49284,-1.46486 z m -7.72984,-1.54843 5.59536,4.89653 -0.50115,-0.44998 c 0.42909,0.36722 0.99399,0.48239 1.53826,0.3557 l -7.12531,-6.15194 c -0.0324,0.49258 0.13714,0.98247 0.49284,1.34969 z m 18.04736,11.56034 -0.87801,-0.25125 -4.6769,-4.04799 -0.97497,1.14988 4.6769,4.07102 0.36722,0.80569 2.56224,1.45441 0.74515,-0.85898 -1.82163,-2.32278"
         style="fill:#1b1919;fill-opacity:1;fill-rule:nonzero;stroke:none"
         id="path3885"
         inkscape:connector-curvature="0" />
      <path
         d="m 322.12786,743.53171 c 0,0.4824 -0.38623,0.86837 -0.86729,0.86837 l -11.36266,0 c -0.4824,0 -0.86756,-0.38597 -0.86756,-0.86837 l 0,-8.47499 c 0,-0.48132 0.38516,-0.86729 0.86756,-0.86729 l 11.36266,0 c 0.48106,0 0.86729,0.38597 0.86729,0.86729 l 0,8.47499"
         style="fill:#1b1919;fill-opacity:1;fill-rule:nonzero;stroke:none"
         id="path3887"
         inkscape:connector-curvature="0" />
      <path
         d="m 323.49952,740.21602 4.83493,4.18406 0,-10.21065 -4.83493,4.18406 0,1.84253"
         style="fill:#1b1919;fill-opacity:1;fill-rule:nonzero;stroke:none"
         id="path3889"
         inkscape:connector-curvature="0" />
    </g>
  </g>
</svg>
